<?xml version="1.0" encoding="UTF-8"?>
<svg id="Layer_2" data-name="Layer 2" xmlns="http://www.w3.org/2000/svg" viewBox="300 310 1470 360">
  <defs>
    <style>
      .cls-1 {
        fill: #a22b43;
      }
    </style>
  </defs>
  <path class="cls-1" d="M365.54,596.59c0,38.8-25.87,64.67-64.67,64.67h-9.24v-346.44h73.91v281.77Z"/>
  <path class="cls-1" d="M566.47,596.59h-31.87c-30.02,0-48.96-18.94-48.96-46.65v-119.64h-73.91v120.1c0,52.2,23.56,106.24,111.79,106.24h42.5c-2.31,27.72-12.47,46.19-48.04,46.19-10.9,0-20.03-1.4-28.45-4.33-27.73-9.64-58.43-4.52-80.37,14.99l-2.04,1.82c33.26,37.42,70.67,49.89,110.4,49.89,90.54,0,122.87-49.43,122.87-122.87v-212.02h-73.91v166.29Z"/>
  <polygon class="cls-1" points="808.77 567.02 754.26 430.29 679.43 430.29 771.35 661.25 846.18 661.25 938.1 430.29 863.27 430.29 808.77 567.02"/>
  <path class="cls-1" d="M1065.57,423.36c-72.52,0-120.56,48.5-120.56,121.95s48.04,122.87,120.56,122.87,120.56-49.42,120.56-122.87-48.04-121.95-120.56-121.95ZM1065.57,605.82c-26.33,0-44.34-24.02-44.34-60.05s18.01-60.05,44.34-60.05,44.35,24.02,44.35,60.05-18.02,60.05-44.35,60.05Z"/>
  <path class="cls-1" d="M1218.46,538.38v122.87h73.91v-122.87c0-28.64,12.01-48.04,37.88-48.04h45.73v-60.05h-53.58c-80.37,0-103.93,55.43-103.93,108.09Z"/>
  <polygon class="cls-1" points="1658.79 327.2 1674.59 327.2 1674.59 364.96 1690.09 364.96 1690.09 327.2 1705.89 327.2 1705.89 314.81 1658.79 314.81 1658.79 327.2"/>
  <polygon class="cls-1" points="1748.82 314.81 1740.98 345.32 1733.11 314.81 1712.73 314.81 1712.73 364.95 1725.42 364.95 1725.42 326.72 1735.21 364.95 1746.66 364.95 1756.47 326.72 1756.47 364.95 1769.13 364.95 1769.13 314.81 1748.82 314.81"/>
  <path class="cls-1" d="M1554.72,638.16c-13.4,19.86-32.8,30.02-58.2,30.02-63.74,0-110.4-48.04-110.4-119.17s47.11-118.72,111.78-118.72h130.72v230.96h-73.91v-23.1ZM1508.99,605.82c28.18,0,45.73-23.1,45.73-57.74v-57.74h-45.73c-27.72,0-46.65,23.56-46.65,58.2s18.94,57.28,46.65,57.28Z"/>
</svg>